<?xml version="1.0" encoding="UTF-8"?>
<svg width="24px" height="20px" viewBox="0 0 24 20" version="1.1" xmlns="http://www.w3.org/2000/svg" xmlns:xlink="http://www.w3.org/1999/xlink">
    <!-- Generator: Sketch 62 (91390) - https://sketch.com -->
    <title>icon_services_software</title>
    <desc>Created with Sketch.</desc>
    <g id="Symbols" stroke="none" stroke-width="1" fill="none" fill-rule="evenodd">
        <g id="MODULE-/-CASE-STUDY-/-LEARN-MORE-ABOUT-OUR-NETWORKS-Desktop" transform="translate(-396.000000, -306.000000)" fill="#FFFFFF" fill-rule="nonzero">
            <g id="Group-2" transform="translate(116.000000, 120.000000)">
                <g id="Group" transform="translate(156.000000, 156.000000)">
                    <g id="Group-3">
                        <g id="ICONS-/--category-/-software-40x40" transform="translate(120.000000, 24.000000)">
                            <path d="M28,6 L28,26 L4,26 L4,6 L28,6 Z M27,12 L5,12 L5,25 L27,25 L27,12 Z M16.2627144,13.936172 L17.2242383,14.2108931 L14.9495172,22.1724171 L13.9879932,21.8976959 L16.2627144,13.936172 Z M11.5,13.7928932 L12.2071068,14.5 L8.95689322,17.7498932 L12.2071068,21 L11.5,21.7071068 L7.79289322,18 L8.04289322,17.7498932 L7.79289322,17.5 L11.5,13.7928932 Z M19.7071068,13.7928932 L23.4142136,17.5 L23.1642136,17.7498932 L23.4142136,18 L19.7071068,21.7071068 L19,21 L22.2502136,17.7498932 L19,14.5 L19.7071068,13.7928932 Z M27,7 L5,7 L5,11 L27,11 L27,7 Z M7,8 C7.55228475,8 8,8.44771525 8,9 C8,9.55228475 7.55228475,10 7,10 C6.44771525,10 6,9.55228475 6,9 C6,8.44771525 6.44771525,8 7,8 Z M10,8 C10.5522847,8 11,8.44771525 11,9 C11,9.55228475 10.5522847,10 10,10 C9.44771525,10 9,9.55228475 9,9 C9,8.44771525 9.44771525,8 10,8 Z" id="Combined-Shape"></path>
                        </g>
                    </g>
                </g>
            </g>
        </g>
    </g>
</svg>