<?xml version="1.0" encoding="UTF-8"?>
<svg width="24px" height="20px" viewBox="0 0 24 20" version="1.1" xmlns="http://www.w3.org/2000/svg" xmlns:xlink="http://www.w3.org/1999/xlink">
    <!-- Generator: Sketch 62 (91390) - https://sketch.com -->
    <title>icon_services_design</title>
    <desc>Created with Sketch.</desc>
    <g id="Symbols" stroke="none" stroke-width="1" fill="none" fill-rule="evenodd">
        <g id="MODULE-/-CASE-STUDY-/-LEARN-MORE-ABOUT-OUR-NETWORKS-Desktop" transform="translate(-708.000000, -306.000000)" fill="#FFFFFF" fill-rule="nonzero">
            <g id="Group-2" transform="translate(116.000000, 120.000000)">
                <g id="Group" transform="translate(156.000000, 156.000000)">
                    <g id="Group-4" transform="translate(312.000000, 0.000000)">
                        <g id="ICONS-/--category-/-design-40x40" transform="translate(120.000000, 24.000000)">
                            <path d="M28,6 L28,26 L4,26 L4,6 L28,6 Z M12,12 L5,12 L5,25 L12,25 L12,12 Z M27,12 L13,12 L13,25 L27,25 L27,12 Z M27,7 L5,7 L5,11 L27,11 L27,7 Z M7,8 C7.55228475,8 8,8.44771525 8,9 C8,9.55228475 7.55228475,10 7,10 C6.44771525,10 6,9.55228475 6,9 C6,8.44771525 6.44771525,8 7,8 Z M10,8 C10.5522847,8 11,8.44771525 11,9 C11,9.55228475 10.5522847,10 10,10 C9.44771525,10 9,9.55228475 9,9 C9,8.44771525 9.44771525,8 10,8 Z" id="Combined-Shape"></path>
                        </g>
                    </g>
                </g>
            </g>
        </g>
    </g>
</svg>