<?xml version="1.0" encoding="UTF-8"?>
<svg width="22px" height="20px" viewBox="0 0 22 20" version="1.1" xmlns="http://www.w3.org/2000/svg" xmlns:xlink="http://www.w3.org/1999/xlink">
    <!-- Generator: Sketch 62 (91390) - https://sketch.com -->
    <title>icon_services_business</title>
    <desc>Created with Sketch.</desc>
    <g id="Symbols" stroke="none" stroke-width="1" fill="none" fill-rule="evenodd">
        <g id="MODULE-/-CASE-STUDY-/-LEARN-MORE-ABOUT-OUR-NETWORKS-Desktop" transform="translate(-1021.000000, -306.000000)" fill="#FFFFFF" fill-rule="nonzero">
            <g id="Group-2" transform="translate(116.000000, 120.000000)">
                <g id="Group" transform="translate(156.000000, 156.000000)">
                    <g id="Group-5" transform="translate(624.000000, 0.000000)">
                        <g id="ICONS-/--category-/-business-consultancy-40x40" transform="translate(120.000000, 24.000000)">
                            <path d="M11,19 L11,26 L5,26 L5,19 L11,19 Z M19,14 L19,26 L13,26 L13,14 L19,14 Z M27,6 L27,26 L21,26 L21,6 L27,6 Z M10,20 L6,20 L6,25 L10,25 L10,20 Z M18,15 L14,15 L14,25 L18,25 L18,15 Z M26,7 L22,7 L22,25 L26,25 L26,7 Z" id="Combined-Shape"></path>
                        </g>
                    </g>
                </g>
            </g>
        </g>
    </g>
</svg>