<?xml version="1.0" encoding="UTF-8"?>
<svg width="18px" height="15px" viewBox="0 0 18 15" version="1.1" xmlns="http://www.w3.org/2000/svg" xmlns:xlink="http://www.w3.org/1999/xlink">
    <!-- Generator: Sketch 62 (91390) - https://sketch.com -->
    <title>icon_social_twitter_hover</title>
    <desc>Created with Sketch.</desc>
    <defs>
        <path d="M23.7256274,9.26498317 C23.0431924,9.67922029 22.2891155,9.98048365 21.4831442,10.1416779 C20.8411226,9.43903624 19.9235552,9 18.9077099,9 C16.9605198,9 15.3802649,10.620209 15.3802649,12.618375 C15.3802649,12.9021872 15.410575,13.1772737 15.471195,13.4422568 C12.5384697,13.2911659 9.93869549,11.8523578 8.19724631,9.66039133 C7.89322749,10.1967871 7.71963367,10.8190612 7.71963367,11.4817488 C7.71963367,12.7364005 8.34236708,13.8440944 9.28978523,14.4930047 C8.71205763,14.4755534 8.16693628,14.3111445 7.69024212,14.0420281 L7.69024212,14.0861154 C7.69024212,15.8399642 8.90677663,17.3031121 10.5223933,17.6342263 C10.2266408,17.7191862 9.91435562,17.7618958 9.59242632,17.7618958 C9.36510107,17.7618958 9.14328674,17.7398521 8.92836105,17.6976018 C9.37750063,19.1345729 10.6799136,20.1811875 12.2243475,20.2092014 C11.0169979,21.1800409 9.49460758,21.758687 7.84179229,21.758687 C7.55706167,21.758687 7.27554576,21.7421543 7,21.7090888 C8.56142595,22.734119 10.4172266,23.333431 12.4094224,23.333431 C18.9008212,23.333431 22.4493913,17.8206789 22.4493913,13.0385823 C22.4493913,12.881062 22.4466359,12.7240009 22.4406657,12.5696953 C23.1299893,12.0594764 23.7288421,11.4225064 24.2000254,10.6969026 C23.5681071,10.9843887 22.8875091,11.1791077 22.1738456,11.2663638 C22.9026641,10.8190612 23.462022,10.1099902 23.7256274,9.26498317" id="path-1"></path>
    </defs>
    <g id="Symbols" stroke="none" stroke-width="1" fill="none" fill-rule="evenodd">
        <g id="MODULE-/-CASE-STUDY-/-SOCIAL-MEDIA-Desktop-Copy" transform="translate(-15.000000, -145.000000)">
            <g id="Share-social-media">
                <g id="ICONS-/-_social-/-twitter" transform="translate(8.000000, 136.000000)">
                    <mask id="mask-2" fill="white">
                        <use xlink:href="#path-1"></use>
                    </mask>
                    <use id="Twitter" fill="#FFFFFF" fill-rule="nonzero" xlink:href="#path-1"></use>
                </g>
            </g>
        </g>
    </g>
</svg>