<?xml version="1.0" encoding="UTF-8"?>
<svg width="19px" height="19px" viewBox="0 0 19 19" version="1.1" xmlns="http://www.w3.org/2000/svg" xmlns:xlink="http://www.w3.org/1999/xlink">
    <!-- Generator: Sketch 62 (91390) - https://sketch.com -->
    <title>icon_social_linkedin_hover</title>
    <desc>Created with Sketch.</desc>
    <defs>
        <path d="M25.228125,7 L7.771875,7 C7.35625,7 7,7.35625 7,7.771875 L7,25.16875 C7,25.64375 7.35625,26 7.771875,26 L25.16875,26 C25.584375,26 25.940625,25.64375 25.940625,25.228125 L25.940625,7.771875 C26,7.35625 25.64375,7 25.228125,7 Z M12.640625,23.209375 L9.790625,23.209375 L9.790625,14.125 L12.640625,14.125 L12.640625,23.209375 Z M11.215625,12.878125 C10.325,12.878125 9.553125,12.165625 9.553125,11.215625 C9.553125,10.325 10.265625,9.553125 11.215625,9.553125 C12.10625,9.553125 12.878125,10.265625 12.878125,11.215625 C12.878125,12.165625 12.10625,12.878125 11.215625,12.878125 Z M23.209375,23.209375 L20.41875,23.209375 L20.41875,18.815625 C20.41875,17.746875 20.41875,16.440625 18.934375,16.440625 C17.45,16.440625 17.271875,17.56875 17.271875,18.75625 L17.271875,23.26875 L14.48125,23.26875 L14.48125,14.125 L17.09375,14.125 L17.09375,15.371875 L17.153125,15.371875 C17.509375,14.659375 18.459375,13.8875 19.825,13.8875 C22.675,13.8875 23.209375,15.7875 23.209375,18.221875 L23.209375,23.209375 L23.209375,23.209375 Z" id="path-1"></path>
    </defs>
    <g id="Symbols" stroke="none" stroke-width="1" fill="none" fill-rule="evenodd">
        <g id="MODULE-/-CASE-STUDY-/-SOCIAL-MEDIA-Desktop-Copy" transform="translate(-15.000000, -79.000000)">
            <g id="Share-social-media">
                <g id="ICONS-/-_social-/-linkedin" transform="translate(8.000000, 72.000000)">
                    <mask id="mask-2" fill="white">
                        <use xlink:href="#path-1"></use>
                    </mask>
                    <use id="Shape" fill="#FFFFFF" fill-rule="nonzero" xlink:href="#path-1"></use>
                </g>
            </g>
        </g>
    </g>
</svg>