<?xml version="1.0" encoding="UTF-8"?>
<svg width="15px" height="15px" viewBox="0 0 15 15" version="1.1" xmlns="http://www.w3.org/2000/svg" xmlns:xlink="http://www.w3.org/1999/xlink">
    <!-- Generator: Sketch 62 (91390) - https://sketch.com -->
    <title>icon_social_linkedin_hover2</title>
    <desc>Created with Sketch.</desc>
    <defs>
        <path d="M18.9210937,5.25 L5.82890625,5.25 C5.5171875,5.25 5.25,5.5171875 5.25,5.82890625 L5.25,18.8765625 C5.25,19.2328125 5.5171875,19.5 5.82890625,19.5 L18.8765625,19.5 C19.1882812,19.5 19.4554687,19.2328125 19.4554687,18.9210937 L19.4554687,5.82890625 C19.5,5.5171875 19.2328125,5.25 18.9210937,5.25 Z M9.48046875,17.4070313 L7.34296875,17.4070313 L7.34296875,10.59375 L9.48046875,10.59375 L9.48046875,17.4070313 Z M8.41171875,9.65859375 C7.74375,9.65859375 7.16484375,9.12421875 7.16484375,8.41171875 C7.16484375,7.74375 7.69921875,7.16484375 8.41171875,7.16484375 C9.0796875,7.16484375 9.65859375,7.69921875 9.65859375,8.41171875 C9.65859375,9.12421875 9.0796875,9.65859375 8.41171875,9.65859375 Z M17.4070312,17.4070312 L15.3140625,17.4070312 L15.3140625,14.1117187 C15.3140625,13.3101562 15.3140625,12.3304687 14.2007812,12.3304687 C13.0875,12.3304687 12.9539062,13.1765625 12.9539062,14.0671875 L12.9539062,17.4515625 L10.8609375,17.4515625 L10.8609375,10.59375 L12.8203125,10.59375 L12.8203125,11.5289062 L12.8648438,11.5289062 C13.1320313,10.9945312 13.8445312,10.415625 14.86875,10.415625 C17.00625,10.415625 17.4070312,11.840625 17.4070312,13.6664062 L17.4070312,17.4070312 L17.4070312,17.4070312 Z" id="path-1"></path>
    </defs>
    <g id="Symbols" stroke="none" stroke-width="1" fill="none" fill-rule="evenodd">
        <g id="MODULE-/-TESTIMONIAL-/-EMPLOYEE-TESTIMONIAL-Desktop" transform="translate(-518.000000, -269.000000)">
            <g id="WIREFRAME-/-image" transform="translate(324.000000, 120.000000)">
                <g id="Group-2">
                    <g id="Group-3">
                        <g id="Group" transform="translate(64.000000, 140.000000)">
                            <g id="ICONS-/-_social-/-linkedin" transform="translate(125.000000, 4.000000)">
                                <mask id="mask-2" fill="white">
                                    <use xlink:href="#path-1"></use>
                                </mask>
                                <use id="Shape" fill="#0028FF" fill-rule="nonzero" xlink:href="#path-1"></use>
                            </g>
                        </g>
                    </g>
                </g>
            </g>
        </g>
    </g>
</svg>