<?xml version="1.0" encoding="UTF-8"?>
<svg width="138px" height="21px" viewBox="0 0 138 21" version="1.1" xmlns="http://www.w3.org/2000/svg" xmlns:xlink="http://www.w3.org/1999/xlink">
    <!-- Generator: Sketch 62 (91390) - https://sketch.com -->
    <title>WIREFRAMES / LOGO / IDEA’MOTIVE</title>
    <desc>Created with Sketch.</desc>
    <g id="Symbols" stroke="none" stroke-width="1" fill="none" fill-rule="evenodd">
        <g id="MODULE-/-NAVIGATION-/-NAV-DEFAULT-/-Desktop" transform="translate(-116.000000, -50.000000)" fill="#1B1D24" fill-rule="nonzero">
            <g id="LOGO-/-PRIMARY-/-DARK" transform="translate(116.000000, 44.000000)">
                <path d="M29.3986333,10.9283 C30.7528,10.9283 31.9754067,11.2151667 33.0661933,11.7889 C34.1568933,12.3626333 35.02252,13.2281733 35.6629,14.3856933 C36.3034533,15.5432133 36.6236867,16.99254 36.6236867,18.7336733 L36.6236867,19.9046267 L26.15626,19.9046267 L26.15626,19.9145933 C26.15626,21.06206 26.4699067,21.9659933 27.09694,22.6263933 C27.72406,23.28688 28.5713133,23.6171667 29.6387867,23.6171667 C30.3525733,23.6171667 30.96964,23.46706 31.4900733,23.1668467 C32.0103333,22.8666333 32.3773667,22.4229867 32.5908267,21.8359933 L36.5335533,22.09608 C36.23334,23.52374 35.47284,24.6645333 34.2519667,25.5185467 C33.0310933,26.3723867 31.4700533,26.7993933 29.5686733,26.7993933 C27.9942,26.7993933 26.6365667,26.4775133 25.4957733,25.8337533 C24.35498,25.1899067 23.4778267,24.2760067 22.8639667,23.0917933 C22.25028,21.90758 21.9433067,20.5049667 21.9433067,18.8838667 C21.9433067,17.30272 22.25028,15.9151 22.8639667,14.72092 C23.4778267,13.52674 24.3433667,12.5961133 25.4608467,11.9289533 C26.57824,11.26188 27.8908067,10.9283 29.3986333,10.9283 Z M84.2143467,10.9283 C85.7686267,10.9283 87.1112667,11.2601467 88.2422667,11.9240133 C89.3724,12.5877933 90.2451333,13.5151267 90.8587333,14.7059267 C91.4723333,15.8968133 91.7791333,17.28608 91.7791333,18.8739 C91.7791333,20.4482 91.4723333,21.8309667 90.8587333,23.0217667 C90.2451333,24.2125667 89.3724,25.1398133 88.2422667,25.80368 C87.1112667,26.46746 85.7686267,26.7993933 84.2143467,26.7993933 C82.6592867,26.7993933 81.3166467,26.46746 80.1861667,25.80368 C79.0554267,25.1398133 78.1832133,24.2125667 77.5693533,23.0217667 C76.9556667,21.8309667 76.6486933,20.4482 76.6486933,18.8739 C76.6486933,17.28608 76.9556667,15.8968133 77.5693533,14.7059267 C78.1832133,13.5151267 79.0554267,12.5877933 80.1861667,11.9240133 C81.3166467,11.2601467 82.6592867,10.9283 84.2143467,10.9283 Z M129.986133,10.9283 C131.339867,10.9283 132.562733,11.2151667 133.653,11.7889 C134.744133,12.3626333 135.609067,13.2281733 136.249533,14.3856933 C136.890867,15.5432133 137.210667,16.99254 137.210667,18.7336733 L137.210667,19.9046267 L126.743067,19.9046267 L126.743067,19.9145933 C126.743067,21.06206 127.0568,21.9659933 127.684267,22.6263933 C128.310867,23.28688 129.158467,23.6171667 130.2262,23.6171667 C130.939467,23.6171667 131.556533,23.46706 132.076533,23.1668467 C132.5974,22.8666333 132.964,22.4229867 133.1772,21.8359933 L137.120533,22.09608 C136.8198,23.52374 136.059733,24.6645333 134.839467,25.5185467 C133.618333,26.3723867 132.0566,26.7993933 130.156,26.7993933 C128.581267,26.7993933 127.2232,26.4775133 126.082667,25.8337533 C124.942133,25.1899067 124.0642,24.2760067 123.451467,23.0917933 C122.837,21.90758 122.5302,20.5049667 122.5302,18.8838667 C122.5302,17.30272 122.837,15.9151 123.451467,14.72092 C124.0642,13.52674 124.93,12.5961133 126.048,11.9289533 C127.165133,11.26188 128.477267,10.9283 129.986133,10.9283 Z M44.7035333,10.9283 C45.8443267,10.9283 46.9118,11.1083933 47.90578,11.4686667 C48.89976,11.82894 49.7020333,12.3909733 50.3125133,13.1548533 C50.9229067,13.9186467 51.2281467,14.9110667 51.2281467,16.13194 L51.2281467,26.49918 L47.1852333,26.49918 L47.1852333,24.3677 L47.0652,24.3677 C46.6914933,25.0815733 46.1327533,25.6636267 45.3890667,26.1139467 C44.64512,26.5642667 43.7061733,26.7894267 42.5720533,26.7894267 C41.1043533,26.7894267 39.8867733,26.40584 38.9194867,25.63858 C37.9521133,24.8714067 37.4684267,23.7272333 37.4684267,22.2062333 C37.4684267,21.0587667 37.7386533,20.1581267 38.27902,19.5042267 C38.8193867,18.8504133 39.5282333,18.37184 40.40556,18.0683333 C41.2828,17.76474 42.2285067,17.5662733 43.2425067,17.4728467 C44.57674,17.33938 45.5307667,17.1993267 46.1045,17.0526 C46.6782333,16.9057867 46.9651,16.58564 46.9651,16.0919 L46.9651,16.03184 C46.9651,15.3980467 46.76672,14.9077733 46.3697,14.5608467 C45.9727667,14.21392 45.4107333,14.0404133 44.6835133,14.0404133 C43.91634,14.0404133 43.30586,14.2072467 42.8522467,14.5408267 C42.3985467,14.8744067 42.09842,15.2979467 41.9516067,15.8117067 L38.00888,15.4914733 C38.30242,14.0905067 39.0312,12.9797 40.1953933,12.15914 C41.3595,11.33858 42.8622133,10.9283 44.7035333,10.9283 Z M20.6181733,6.00485333 L20.6181733,26.49918 L16.4151867,26.49918 L16.4151867,24.0375 L16.2350067,24.0375 C16.0415667,24.4645067 15.7613733,24.8864867 15.3945133,25.3033533 C15.0275667,25.7203067 14.55558,26.0655867 13.9785533,26.3391067 C13.40144,26.61254 12.6993533,26.7493867 11.8720333,26.7493867 C10.7045467,26.7493867 9.65050667,26.4475267 8.70982667,25.84372 C7.76914667,25.2399133 7.02199333,24.3494133 6.46828,23.1718733 C5.91448,21.9943333 5.63766667,20.5483 5.63766667,18.8337733 C5.63766667,17.07262 5.92288667,15.6065667 6.49324,14.4357867 C7.06368,13.26492 7.82088667,12.38768 8.76486,11.8038933 C9.70883333,11.2201933 10.7412067,10.9283 11.86198,10.9283 C12.7226667,10.9283 13.44148,11.07338 14.0185067,11.3636267 C14.59562,11.6537867 15.06258,12.0124133 15.4194733,12.4393333 C15.7763667,12.8662533 16.0483267,13.2899667 16.2350067,13.7102133 L16.36518,13.7102133 L16.36518,6.00485333 L20.6181733,6.00485333 Z M98.1049333,7.44586 L98.1049333,11.1284133 L100.996133,11.1284133 L100.996133,14.33066 L98.1049333,14.33066 L98.1049333,21.7758467 C98.1049333,22.3629267 98.2384,22.7599467 98.5053333,22.9666467 C98.7714,23.17352 99.1180667,23.2769133 99.5462,23.2769133 C99.7455333,23.2769133 99.9457333,23.25854 100.145933,23.22188 C100.347,23.1851333 100.891267,23.0787067 100.997867,23.0587733 L100.997032,24.7915 C100.996519,25.5568244 100.996133,26.3045844 100.996133,26.3906733 C100.823667,26.43756 100.615667,26.4884333 100.376467,26.5442467 C99.9890667,26.6342933 99.5193333,26.6893267 98.9646667,26.7093467 C97.4176667,26.77608 96.1748667,26.4408533 95.2371333,25.70358 C94.3002667,24.96648 93.8348667,23.8439733 93.8418,22.3362333 L93.8418,14.33066 L91.7401333,14.33066 L91.7401333,11.1284133 L93.8418,11.1284133 L93.8418,7.44586 L98.1049333,7.44586 Z M4.33333333,6.00459333 L4.33307333,26.49918 L8.66666661e-05,26.49918 L-6.06625861e-13,6.00459333 L4.33333333,6.00459333 Z M70.4630333,10.9283 C71.89728,10.9283 73.0632067,11.38356 73.96038,12.2942533 C74.8577267,13.20486 75.3064,14.4941133 75.3064,16.1619267 L75.3064,26.49918 L71.0534067,26.49918 L71.0534067,17.0025067 C71.0534067,16.14858 70.8266,15.5081133 70.3729,15.0811067 C69.9192867,14.6542733 69.3522267,14.4407267 68.67172,14.4407267 C67.89796,14.4407267 67.2941533,14.6875533 66.8604733,15.1812067 C66.42688,15.6749467 66.21004,16.3187067 66.21004,17.1125733 L66.21004,26.49918 L62.0771667,26.49918 L62.0771667,16.91246 C62.0771667,16.1586333 61.86206,15.5582067 61.4316733,15.1112667 C61.0013733,14.66424 60.43596,14.4407267 59.73552,14.4407267 C59.02832,14.4407267 58.4346533,14.6992533 57.9541733,15.2163067 C57.4738667,15.7332733 57.2337133,16.4188067 57.2337133,17.2727333 L57.2337133,26.49918 L52.9707533,26.49918 L52.9707533,11.1284133 L57.0336,11.1284133 L57.0336,13.8403867 L57.2136933,13.8403867 C57.5340133,12.9330733 58.0692667,12.2208467 58.8198867,11.7037933 C59.57042,11.18674 60.4626533,10.9283 61.4966733,10.9283 C62.5508,10.9283 63.44806,11.19012 64.1886267,11.7138467 C64.9291067,12.2375733 65.4228467,12.94642 65.6696733,13.8403867 L65.8297467,13.8403867 C66.1433067,12.95968 66.7120133,12.2542133 67.5359533,11.7238133 C68.3598933,11.1934133 69.3355867,10.9283 70.4630333,10.9283 Z M107.020333,11.1284133 L107.020333,26.49918 L102.758067,26.49918 L102.758067,11.1284133 L107.020333,11.1284133 Z M112.375467,11.1284133 L115.568267,22.1261533 L115.727733,22.1261533 L118.910133,11.1284133 L123.423733,11.1284133 L118.049533,26.49918 L113.246467,26.49918 L107.872267,11.1284133 L112.375467,11.1284133 Z M46.9951733,19.3742267 C46.82834,19.4875867 46.5698133,19.5876867 46.2195933,19.67444 C45.8693733,19.7611067 45.4957533,19.83616 45.09882,19.8996 C44.7018,19.9629533 44.3465533,20.0179867 44.03308,20.0647 C43.28584,20.1713867 42.6837667,20.3815533 42.2267733,20.6951133 C41.7698667,21.0086733 41.5413267,21.4656667 41.5413267,22.0660933 C41.5413267,22.6531733 41.75314,23.09682 42.1767667,23.3970333 C42.6003933,23.6972467 43.1391133,23.8473533 43.7929267,23.8473533 C44.7269333,23.8473533 45.49402,23.57548 46.0945333,23.0317333 C46.69496,22.4879867 46.9951733,21.8125067 46.9951733,21.0052933 L46.9951733,19.3742267 Z M84.23428,14.1805533 C83.1597,14.1805533 82.3496267,14.6224667 81.8023267,15.5064667 C81.2550267,16.3904667 80.9818533,17.50292 80.9818533,18.8438267 C80.9818533,20.1847333 81.2550267,21.29554 81.8023267,22.17616 C82.3496267,23.05678 83.1597,23.4970467 84.23428,23.4970467 C85.2881467,23.4970467 86.0869533,23.05678 86.6307,22.17616 C87.1745333,21.29554 87.4458,20.1847333 87.4458,18.8438267 C87.4458,17.50292 87.1745333,16.3904667 86.6307,15.5064667 C86.0869533,14.6224667 85.2881467,14.1805533 84.23428,14.1805533 Z M13.2229933,14.3206933 C12.1689533,14.3206933 11.36668,14.7359133 10.81626,15.5665267 C10.2659267,16.39714 9.99076,17.47952 9.99076,18.8137533 C9.99076,20.1547467 10.2675733,21.2470933 10.8212867,22.09114 C11.375,22.9350133 12.17554,23.3569933 13.2229933,23.3569933 C14.25034,23.3569933 15.04594,22.9416867 15.60962,22.1110733 C16.1733867,21.2805467 16.4552267,20.18144 16.4552267,18.8137533 C16.4552267,17.43948 16.1750333,16.3470467 15.6146467,15.5364533 C15.05426,14.7259467 14.2570133,14.3206933 13.2229933,14.3206933 Z M29.4685733,14.1105267 C28.5213067,14.1105267 27.74408,14.4174133 27.13698,15.0311867 C26.52988,15.6448733 26.20306,16.38882 26.15626,17.26268 L32.6108467,17.26268 C32.6041733,16.34878 32.3106333,15.5948667 31.7302267,15.0011133 C31.14982,14.4074467 30.3959067,14.1105267 29.4685733,14.1105267 Z M130.055467,14.1105267 C129.1082,14.1105267 128.3308,14.4174133 127.724133,15.0311867 C127.1166,15.6448733 126.789867,16.38882 126.743067,17.26268 L133.197133,17.26268 C133.191067,16.34878 132.897267,15.5948667 132.317467,15.0011133 C131.7368,14.4074467 130.9828,14.1105267 130.055467,14.1105267 Z M107.022067,6 L107.022067,9.37896 L102.755467,9.37896 L102.755467,6 L107.022067,6 Z" id="Combined-Shape"></path>
            </g>
        </g>
    </g>
</svg>