<?xml version="1.0" encoding="UTF-8"?>
<svg width="729px" height="280px" viewBox="0 0 729 280" version="1.1" xmlns="http://www.w3.org/2000/svg" xmlns:xlink="http://www.w3.org/1999/xlink">
    <!-- Generator: Sketch 62 (91390) - https://sketch.com -->
    <title>symbol_letter_a</title>
    <desc>Created with Sketch.</desc>
    <g id="Symbols" stroke="none" stroke-width="1" fill="none" fill-rule="evenodd">
        <g id="MODULE-/-CTA-/-CASE-STUDY-/-BLUE-Desktop" transform="translate(-344.000000, -0.000000)" fill-rule="nonzero" stroke="#FFFFFF" stroke-width="2">
            <g id="PATTERN-/-LETTER-A" transform="translate(220.000000, -360.000000)">
                <path d="M748.853493,799.040021 L648.981786,799.689935 L647.774676,799.665696 L646.596893,799.583972 L645.4302,799.449538 L644.291022,799.25808 L643.162755,799.00842 L642.051538,798.710172 L640.967074,798.364679 L639.90305,797.966868 L638.867303,797.520921 L637.853386,797.025976 L636.865498,796.488872 L635.911403,795.903949 L634.978387,795.273923 L634.079868,794.60604 L633.216495,793.900953 L632.386585,793.152594 L631.595036,792.370639 L630.835909,791.544248 L630.11438,790.688033 L629.433131,789.800492 L628.79587,788.880535 L628.200885,787.925681 L627.647855,786.939844 L627.138813,785.931366 L626.67869,784.896089 L626.266596,783.832312 L625.906547,782.742562 L625.594302,781.632892 L625.335123,780.500183 L625.128817,779.348705 L624.980171,778.178719 L624.88667,776.958461 L624.32592,770.10429 L623.639044,763.2606 L622.821806,756.436916 L621.879263,749.63356 L620.811301,742.854758 L619.613044,736.106412 L618.294579,729.378735 L616.855702,722.685698 L615.291563,716.018056 L613.61207,709.385313 L611.807263,702.787739 L609.887317,696.220822 L607.851901,689.693455 L605.696269,683.206506 L603.430419,676.759862 L601.049267,670.358321 L598.55783,663.996888 L595.950992,657.680319 L593.234131,651.414495 L590.41194,645.193643 L587.479397,639.027784 L584.441803,632.912495 L581.298795,626.847041 L578.050435,620.841586 L574.696961,614.891551 L571.243045,609.001346 L567.684118,603.176736 L564.030124,597.407535 L560.275385,591.702737 L556.420722,586.068614 L552.475954,580.499825 L548.430515,574.995621 L544.290051,569.566902 L540.059358,564.208358 L535.73328,558.924828 L531.317336,553.716921 L526.815677,548.583627 L522.218774,543.535555 L517.537023,538.563074 L512.769882,533.675627 L507.917342,528.868204 L502.979577,524.151009 L497.961605,519.519035 L492.858219,514.977122 L487.674603,510.525428 L482.410962,506.169138 L477.072137,501.903091 L471.652661,497.73195 L466.157936,493.661041 L460.588267,489.690584 L454.943185,485.81523 L449.222756,482.045061 L443.437163,478.380184 L437.57597,474.820348 L431.644942,471.371027 L425.648496,468.026855 L419.581618,464.797872 L413.450052,461.679447 L407.252921,458.671131 L400.995376,455.783033 L394.672716,453.010289 L388.289354,450.357658 L381.841333,447.830596 L374,444.922592 L374,775.042905 L373.970883,776.24639 L373.884613,777.425423 L373.73584,778.596406 L373.534036,779.759184 L373.274838,780.906376 L372.962936,782.034021 L372.593686,783.146566 L372.170605,784.237923 L371.700219,785.308291 L371.172523,786.354088 L370.596313,787.376862 L369.9677,788.370166 L369.290609,789.335381 L368.566049,790.266273 L367.794052,791.162939 L366.97367,792.021702 L366.107883,792.844199 L365.210063,793.62199 L364.280381,794.345609 L363.315166,795.0227 L362.321862,795.651313 L361.300685,796.226624 L360.25329,796.750321 L359.181173,797.226283 L358.091566,797.648686 L356.979021,798.017936 L355.851376,798.329838 L354.704184,798.589036 L353.543395,798.790495 L352.37043,798.934712 L351.189368,799.025932 L349.987905,799.055 L150.012095,799.055 L148.810632,799.025932 L147.62957,798.934712 L146.456605,798.790495 L145.295816,798.589036 L144.148624,798.329838 L143.020979,798.017936 L141.908434,797.648686 L140.818827,797.226283 L139.74671,796.750321 L138.699315,796.226624 L137.678138,795.651313 L136.684834,795.0227 L135.719619,794.345609 L134.789937,793.62199 L133.892117,792.844199 L133.027392,792.022711 L132.210849,791.162939 L131.43301,790.265063 L130.709391,789.335381 L130.0323,788.370166 L129.403687,787.376862 L128.827477,786.354088 L128.299781,785.308291 L127.829395,784.237923 L127.406314,783.146566 L127.037064,782.034021 L126.725162,780.906376 L126.465964,779.759184 L126.26416,778.596406 L126.115387,777.425423 L126.029117,776.24639 L126,775.042905 L126,200.036672 L126.029083,198.790957 L126.125156,197.570828 L126.2741,196.36967 L126.484939,195.190885 L126.753391,194.030789 L127.080201,192.891762 L127.454635,191.773261 L127.885855,190.685627 L128.366566,189.623256 L128.894715,188.586163 L129.470171,187.583911 L130.093458,186.610623 L130.76592,185.669177 L131.476857,184.761291 L132.229894,183.893141 L133.028297,183.05626 L133.859229,182.25895 L134.726291,181.506857 L135.634177,180.79592 L136.575623,180.123458 L137.548911,179.500171 L138.552755,178.923801 L139.589928,178.390809 L140.648889,177.911641 L141.738857,177.484297 L142.853717,177.104668 L143.995246,176.778517 L145.155885,176.509939 L146.33467,176.2991 L147.535828,176.150156 L148.755957,176.054083 L150.001887,176.024995 L207.898951,175.999999 L236.496753,176.029995 L258.040256,176.099957 L265.45269,176.294496 L272.860183,176.579016 L280.251965,176.958338 L287.62906,177.437499 L294.991474,178.006527 L302.338877,178.670389 L309.671235,179.424089 L316.983548,180.272617 L324.275898,181.210989 L331.55353,182.244233 L338.806171,183.362328 L346.043869,184.575266 L353.261794,185.873095 L360.454403,187.260705 L367.627351,188.738222 L374.775321,190.300593 L381.903312,191.952809 L389.006575,193.689939 L396.084862,195.511924 L403.138089,197.418741 L410.161441,199.410438 L417.16504,201.487057 L424.133686,203.643544 L431.082357,205.884889 L437.995977,208.206069 L444.884631,210.612106 L451.73864,213.098119 L458.567986,215.664116 L465.361971,218.304835 L472.126,221.030414 L478.855377,223.830993 L485.554519,226.711324 L492.214289,229.669497 L498.848852,232.702011 L505.443188,235.811982 L511.99306,238.994564 L518.52286,242.256966 L525.002899,245.589204 L531.447923,248.993862 L537.862668,252.476009 L544.223124,256.027822 L550.553578,259.652286 L556.843794,263.346464 L563.089376,267.110717 L569.294541,270.944561 L575.460926,274.854037 L581.580931,278.822471 L587.65696,282.86643 L593.687594,286.97497 L599.674215,291.154057 L605.615001,295.392404 L611.510985,299.700738 L617.357042,304.073969 L623.153507,308.512361 L628.905472,313.016002 L634.611427,317.578683 L640.262802,322.206539 L645.865053,326.89998 L651.416254,331.647365 L656.913265,336.460295 L662.360018,341.332834 L667.752195,346.265601 L673.094134,351.257983 L678.376131,356.305249 L683.608577,361.41779 L688.781101,366.580249 L693.903026,371.80192 L698.961059,377.079577 L703.967846,382.410725 L708.911027,387.80321 L713.798651,393.244905 L718.626322,398.741466 L723.38947,404.2884 L728.097322,409.889798 L732.739997,415.540776 L737.318374,421.24743 L741.836844,427.004018 L746.295,432.81 L750.683097,438.660683 L755.006774,444.566948 L759.26532,450.517821 L763.459191,456.51895 L767.587845,462.564543 L771.646401,468.654749 L775.635582,474.795684 L779.559444,480.980885 L783.408651,487.206398 L787.192733,493.481454 L790.90205,499.796652 L794.544177,506.161631 L798.10591,512.556656 L801.6006,519.001729 L805.022966,525.486738 L808.372608,532.011301 L811.642315,538.575677 L814.837345,545.180402 L817.957495,551.82008 L821.002452,558.49902 L823.960644,565.213427 L826.853187,571.972685 L829.658656,578.761722 L832.389206,585.585599 L835.034946,592.449548 L837.605854,599.343575 L840.091648,606.271853 L842.492838,613.235804 L844.819086,620.229522 L847.055256,627.252494 L849.206768,634.311052 L851.278355,641.399371 L853.260009,648.517353 L855.156898,655.66563 L856.968856,662.843577 L858.690991,670.051586 L860.328202,677.284267 L861.870597,684.546999 L863.328194,691.829991 L864.695887,699.147651 L865.973703,706.485112 L867.15668,713.847517 L868.249818,721.234933 L869.24813,728.647406 L870.156602,736.079898 L870.970203,743.537077 L871.688976,751.014315 L872.312887,758.511224 L872.836977,766.033168 L873.26534,773.559405 L873.279761,774.765982 L873.231768,775.965797 L873.126247,777.15531 L872.958141,778.336858 L872.73738,779.507848 L872.454421,780.658867 L872.118751,781.795351 L871.72055,782.913193 L871.273707,784.00868 L870.769893,785.083481 L870.213627,786.133673 L869.604557,787.150388 L868.941561,788.144882 L868.230884,789.105258 L867.468587,790.035355 L866.658817,790.92179 L865.799001,791.771999 L864.905992,792.573786 L863.974009,793.32802 L863.01483,794.033017 L862.017999,794.684791 L860.995753,795.284701 L859.94335,795.832527 L858.868458,796.331584 L857.766719,796.772279 L856.648227,797.156311 L855.505534,797.487596 L854.34946,797.761024 L853.173368,797.977041 L851.988681,798.135319 L850.794007,798.231277 L849.574914,798.270132 L804.462897,798.645025 L748.853493,799.040021 Z M345.477947,407.253709 L348.574712,405.097733 L351.82786,403.186998 L355.218845,401.535608 L358.727981,400.143716 L362.328923,399.026689 L366.008369,398.193792 L369.742292,397.644974 L373.505572,397.385269 L377.278166,397.414665 L381.036441,397.738063 L384.760982,398.345752 L388.426197,399.237555 L392.030861,400.414488 L398.948516,402.979349 L406.270408,405.852244 L413.517279,408.864708 L420.684734,412.007016 L427.787268,415.283958 L434.809932,418.690548 L441.748212,422.222038 L448.616618,425.878205 L455.409967,429.663926 L462.108703,433.564455 L468.732989,437.589906 L475.277303,441.729983 L481.727002,445.984888 L488.096923,450.349557 L494.381723,454.833711 L500.577386,459.42808 L506.68321,464.122182 L512.699015,468.925846 L518.625236,473.834434 L524.456673,478.842786 L530.193466,483.951026 L535.840466,489.159036 L541.387685,494.461818 L546.84027,499.859528 L552.198054,505.352005 L557.451057,510.929267 L562.609268,516.601304 L567.662695,522.35812 L572.616481,528.204885 L577.465631,534.131624 L582.214967,540.143125 L586.854502,546.229397 L591.389197,552.395386 L595.81921,558.646293 L600.139474,564.967048 L604.345035,571.357705 L608.445894,577.823293 L612.4369,584.363555 L616.313048,590.968471 L620.069386,597.63809 L623.711341,604.378203 L627.243353,611.177824 L630.650523,618.042049 L633.943153,624.96655 L637.115871,631.950521 L640.163932,638.989497 L643.092274,646.083368 L645.89569,653.23158 L648.5695,660.434904 L651.11871,667.683439 L653.54312,674.9866 L655.837742,682.33438 L657.997749,689.722301 L660.032954,697.15978 L661.928428,704.641912 L663.689301,712.154307 L665.315408,719.711213 L666.8019,727.308287 L668.153675,734.935091 L669.360676,742.596055 L670.594079,751.550672 L748.526489,751.044979 L804.092109,750.649975 L823.412264,750.485707 L823.21993,748.434146 L822.473423,741.585325 L821.641844,734.762369 L820.720148,727.959852 L819.718345,721.172632 L818.631314,714.410002 L817.459117,707.667364 L816.201833,700.950157 L814.864383,694.247882 L813.441738,687.575474 L811.938988,680.928314 L810.351145,674.296436 L808.688116,667.694414 L806.939949,661.117499 L805.116709,654.565854 L803.213249,648.044001 L801.229642,641.542179 L799.165961,635.070633 L797.027251,628.624452 L794.813326,622.208078 L792.524229,615.826654 L790.154989,609.46527 L787.710766,603.139341 L785.196467,596.843577 L782.606779,590.577234 L779.939298,584.346437 L777.202499,578.140876 L774.392628,571.975186 L771.512638,565.839557 L768.557523,559.738997 L765.532511,553.668939 L762.442161,547.6385 L759.279309,541.648097 L756.046327,535.683246 L752.748424,529.76804 L749.380107,523.878376 L745.947086,518.038238 L742.446317,512.23355 L738.880643,506.464256 L735.249452,500.739368 L731.553359,495.054882 L727.792164,489.41047 L723.971212,483.80664 L720.084821,478.24238 L716.132835,472.727505 L712.126945,467.254373 L708.055,461.825 L703.923309,456.441181 L699.731523,451.102439 L695.484715,445.813865 L691.178036,440.565638 L686.815734,435.371843 L682.388214,430.222995 L677.911708,425.120504 L673.379101,420.071933 L668.786695,415.068775 L664.144261,410.120764 L659.446712,405.222806 L654.69408,400.374936 L649.891738,395.577524 L645.038564,390.839452 L640.130686,386.151846 L635.178081,381.519657 L630.164287,376.94153 L625.112291,372.415203 L620.008243,367.952195 L614.860731,363.540691 L609.661492,359.19287 L604.413479,354.89624 L599.119875,350.659275 L593.781647,346.47776 L588.402779,342.360894 L582.983815,338.309113 L577.515017,334.312609 L572.001028,330.376117 L566.447625,326.49669 L560.857533,322.693225 L555.224188,318.942608 L549.549233,315.261066 L543.835543,311.637321 L538.090461,308.089183 L532.3014,304.595635 L526.476081,301.177514 L520.616937,297.822214 L514.71709,294.531648 L508.78258,291.303692 L502.822159,288.153184 L496.821979,285.070523 L490.787018,282.052975 L484.721698,279.107964 L478.626161,276.232994 L472.505707,273.435501 L466.340244,270.698572 L460.154727,268.041201 L453.939153,265.449645 L447.692993,262.935153 L441.421915,260.495844 L435.121107,258.131789 L428.795375,255.837897 L422.444042,253.618937 L416.072773,251.480155 L409.666455,249.4115 L403.239843,247.422907 L396.79832,245.514493 L390.326995,243.681285 L383.835398,241.923144 L377.318501,240.245081 L370.786659,238.647184 L364.234694,237.129412 L357.662348,235.691711 L351.070334,234.339246 L344.458371,233.061935 L337.831033,231.869716 L331.184038,230.757709 L324.521728,229.725802 L317.844041,228.779003 L311.151344,227.917369 L304.443974,227.140937 L297.716313,226.444627 L290.983327,225.838457 L284.235624,225.317477 L277.468006,224.881664 L270.700062,224.530993 L263.917142,224.270497 L257.339627,224.100043 L236.393344,224.030006 L207.886052,224.000001 L174,224.015456 L174,751.055 L326,751.055 L326,446.379498 L326.147767,442.59174 L326.578944,438.843438 L327.304045,435.139545 L328.308706,431.503161 L329.587478,427.955917 L331.140714,424.516258 L332.948731,421.208909 L335.011518,418.048583 L337.309947,415.054254 L339.828611,412.246483 L342.557708,409.639877 L345.477947,407.253709 Z" id="Fill-1"></path>
            </g>
        </g>
    </g>
</svg>